<svg xmlns="http://www.w3.org/2000/svg" width="941.845" height="324.595" viewBox="0 0 941.845 324.595">
  <defs>
    <style>
      .cls-1 {
        fill: #00303c;
      }

      .cls-2 {
        fill: #d0af21;
      }
    </style>
  </defs>
  <g id="Layer_2" data-name="Layer 2" transform="translate(-0.805)">
    <g id="Layer_1" data-name="Layer 1">
      <path id="Path_270" data-name="Path 270" class="cls-1" d="M943,174.93c-.14.91-.35,1.81-.41,2.72a136.291,136.291,0,0,1-8.14,37.74,159.29,159.29,0,0,1-76.52,87.14,150.4,150.4,0,0,1-49.38,15.8,118.425,118.425,0,0,1-14.31,1.24c-14.83.24-29.66.27-44.5.33-5.31,0-9.05-2.66-10.24-7.22a10.233,10.233,0,0,1-.29-2.53q0-19.54,0-39.11c0-6.11,4-10.09,10.2-10.1,12.79,0,25.57.09,38.35,0a93.791,93.791,0,0,0,37.39-8,98.081,98.081,0,0,0,32-22.43c14.12-15,23.17-32.48,26.29-53a103.288,103.288,0,0,0,.74-24.33c-1.73-20.49-9.58-38.54-22.71-54.32a98.117,98.117,0,0,0-17-16c-.4-.3-.78-.64-1.35-1.12,9.82-17,19.61-33.95,29.54-51.16,2.73,1.91,5.35,3.65,7.86,5.53A156.263,156.263,0,0,1,901.1,54.6a163.071,163.071,0,0,1,23.51,32.64,152.139,152.139,0,0,1,17.2,51.32c.46,3,.52,6.14.79,9.21a9.32,9.32,0,0,0,.38,1.42Z" transform="translate(-0.35 -0.39)"/>
      <path id="Path_271" data-name="Path 271" class="cls-1" d="M166.05.39c2,.18,4,.4,6,.52a137.249,137.249,0,0,1,27.84,4.42c5.69,1.54,11.26,3.54,16.88,5.34a25.049,25.049,0,0,1,2.35,1l-28.76,49.9c-.87-.23-1.76-.44-2.64-.68a104,104,0,0,0-23.28-3.6A100.23,100.23,0,0,0,130,61.82a97.329,97.329,0,0,0-28.5,14.49c-21,15.32-34.65,35.7-41.16,60.84a104.13,104.13,0,0,0-2.88,31.57,101.94,101.94,0,0,0,7.85,34.61,107.74,107.74,0,0,0,22,33.5c.35.36.66.76,1.09,1.25l-29,50.31-4.77-4.22A152.75,152.75,0,0,1,30.21,256.5,162.77,162.77,0,0,1,8.69,213.14a160.522,160.522,0,0,1-6.45-29.81,162.439,162.439,0,0,1-1.07-17.92c0-5-.11-10.06.26-15.06a161.179,161.179,0,0,1,6.91-36.72A163.79,163.79,0,0,1,41.71,54.55,160.73,160.73,0,0,1,90,17.15,151.75,151.75,0,0,1,141.52,1.53c4.07-.49,8.2-.51,12.3-.77a7.43,7.43,0,0,0,1.42-.37Z" transform="translate(-0.35 -0.39)"/>
      <path id="Path_272" data-name="Path 272" class="cls-2" d="M551.26,220V134.32a16.789,16.789,0,0,0-.46-3.79,1.21,1.21,0,0,0-2-.76,9.729,9.729,0,0,0-2.48,2.16c-2.38,3.24-4.64,6.58-7,9.86Q522.77,165,506.21,188.25c-3.59,5-7.39,9.86-11.08,14.8A14.87,14.87,0,0,1,482,209.24c-4-.12-8.06,0-12.09-.05a44.062,44.062,0,0,1-5.37-.47,11.31,11.31,0,0,1-7.53-4.51c-3.56-4.61-7-9.32-10.36-14.05q-19.95-27.91-39.82-55.87c-.65-.91-1.15-1.91-1.75-2.84A4.55,4.55,0,0,0,404,130c-.67-.44-1.6-1-2.21-.85s-1.16,1.21-1.3,1.95a21.407,21.407,0,0,0-.25,4.09v53.55a7.93,7.93,0,0,1-2.45,6.23,7.29,7.29,0,0,1-5.11,2.07H348.15a8.3,8.3,0,0,1-8.07-7.25,22.007,22.007,0,0,1-.09-2.57q0-86,0-171.95c0-3,.51-5.6,2.88-7.64a7.4,7.4,0,0,1,4.8-2.16c.94,0,1.88-.16,2.82-.16,13.47,0,26.94.06,40.42,0a9.51,9.51,0,0,1,8.89,5Q410,27.2,420.25,44.13q17.91,29.57,35.84,59.12c3.82,6.3,7.6,12.62,11.45,18.9a18.509,18.509,0,0,0,2.65,3.45c3.89,3.92,8.95,3.62,12-.95s5.93-9.42,8.83-14.17q17.06-28,34.08-56L551.04,11.9c.76-1.24,1.61-2.43,2.36-3.68a5.65,5.65,0,0,1,5.12-2.88h42.99a22,22,0,0,1,2.56.14,7.784,7.784,0,0,1,7.38,8V114.13a9.531,9.531,0,0,1-1.33,5.09q-12,20.655-23.93,41.38-16.56,28.71-33.13,57.41c-.42.73-.92,1.41-1.38,2.11Z" transform="translate(-0.35 -0.39)"/>
      <path id="Path_273" data-name="Path 273" class="cls-2" d="M864.9,25.78l-29.47,51c-1.53-.85-2.84-1.61-4.18-2.32a94.13,94.13,0,0,0-34.72-10.43c-3.65-.36-7.34-.51-11-.53q-17.62-.09-35.26,0a8.57,8.57,0,0,0-3.68.78c-2.25,1.14-2.76,3.34-2.76,5.68V84.15c0,4.12-.15,8.25.05,12.35a9.18,9.18,0,0,1-6.56,8.83,15.141,15.141,0,0,1-4.3.6c-12.52,0-25-.12-37.57.09a10.75,10.75,0,0,1-10.54-10.59c.14-26.67.05-53.35.07-80,0-5.55,3-9.61,7.84-10.65a12.8,12.8,0,0,1,2.55-.22c31.65,0,63.31-.21,95,.08a146.31,146.31,0,0,1,51.42,10A150.642,150.642,0,0,1,864.9,25.78Z" transform="translate(-0.35 -0.39)"/>
      <path id="Path_274" data-name="Path 274" class="cls-2" d="M66.63,294l28.6-49.53a17.273,17.273,0,0,1,1.54,1c15.22,12.14,32.35,19.83,51.77,22a99.38,99.38,0,0,0,56.65-9.78,104.18,104.18,0,0,0,26.65-19c2.94-2.9,6.33-4.59,10.61-4.24a8.24,8.24,0,0,1,5,1.83q9.12,7.91,18.2,15.87c3.08,2.71,6.1,5.5,9.19,8.2a10.77,10.77,0,0,1,3.88,5.9,8.55,8.55,0,0,1-2.37,8.51c-5,4.79-9.92,9.72-15.22,14.19a153.081,153.081,0,0,1-49.76,27.76,155.188,155.188,0,0,1-32,7.12,158.481,158.481,0,0,1-54.59-2.87A154.469,154.469,0,0,1,91.15,309a165.382,165.382,0,0,1-23.71-14.37C67.23,294.47,67,294.31,66.63,294Z" transform="translate(-0.35 -0.39)"/>
      <path id="Path_275" data-name="Path 275" class="cls-1" d="M611.34,135.61c.07,1.4.15,2.22.15,3v173c0,2.51-.46,4.77-2.28,6.59s-4.16,2.24-6.63,2.24H573.26c-4.37,0-8.75.08-13.12-.05a12,12,0,0,1-4.72-.95c-2.8-1.32-4-3.85-4.15-6.88-.06-1.12,0-2.23,0-3.35V242.03a9.18,9.18,0,0,1,1.25-4.85q17-29.35,33.91-58.74,11.68-20.25,23.44-40.47C610.19,137.33,610.62,136.73,611.34,135.61Z" transform="translate(-0.35 -0.39)"/>
      <path id="Path_276" data-name="Path 276" class="cls-2" d="M199.06,64.64l28.61-49.57c5,2.76,10,5.32,14.73,8.14A143.2,143.2,0,0,1,266,40.51c4.37,4,8.48,8.23,12.58,12.48a6.55,6.55,0,0,1-.6,9.6q-12.7,11-25.47,22c-2.33,2-4.7,4-7,6.07-2.71,2.49-6.78,3.29-10.12-.41a100.23,100.23,0,0,0-28.88-22c-1.75-.9-3.57-1.66-5.35-2.49C200.49,65.42,199.84,65.05,199.06,64.64Z" transform="translate(-0.35 -0.39)"/>
    </g>
  </g>
</svg>
